<svg width="20" height="21" viewBox="0 0 20 21" fill="none" xmlns="http://www.w3.org/2000/svg">
<path d="M11.82 20.5H8.18001C7.95194 20.5 7.73071 20.4221 7.55301 20.2792C7.37531 20.1362 7.25181 19.9368 7.20301 19.714L6.79601 17.83C6.25306 17.5921 5.73824 17.2946 5.26101 16.943L3.42401 17.528C3.20657 17.5973 2.97196 17.5902 2.75913 17.5078C2.5463 17.4254 2.36806 17.2727 2.25401 17.075L0.430006 13.924C0.317152 13.7261 0.274789 13.4958 0.309849 13.2708C0.344909 13.0457 0.455315 12.8392 0.623006 12.685L2.04801 11.385C1.9832 10.7961 1.9832 10.2019 2.04801 9.613L0.623006 8.316C0.455078 8.16177 0.344521 7.95507 0.309455 7.72978C0.27439 7.50449 0.316896 7.27397 0.430006 7.076L2.25001 3.923C2.36406 3.72532 2.5423 3.57259 2.75513 3.49019C2.96796 3.40778 3.20257 3.40066 3.42001 3.47L5.25701 4.055C5.50101 3.875 5.75501 3.707 6.01701 3.555C6.27001 3.413 6.53001 3.284 6.79601 3.169L7.20401 1.287C7.25258 1.0642 7.37584 0.864688 7.55335 0.721549C7.73087 0.57841 7.95197 0.50024 8.18001 0.5H11.82C12.048 0.50024 12.2691 0.57841 12.4467 0.721549C12.6242 0.864688 12.7474 1.0642 12.796 1.287L13.208 3.17C13.488 3.294 13.762 3.433 14.027 3.588C14.274 3.731 14.513 3.888 14.743 4.057L16.581 3.472C16.7983 3.40292 17.0327 3.41017 17.2453 3.49256C17.4579 3.57495 17.636 3.72753 17.75 3.925L19.57 7.078C19.802 7.485 19.722 8 19.377 8.317L17.952 9.617C18.0168 10.2059 18.0168 10.8001 17.952 11.389L19.377 12.689C19.722 13.007 19.802 13.521 19.57 13.928L17.75 17.081C17.636 17.2787 17.4577 17.4314 17.2449 17.5138C17.0321 17.5962 16.7974 17.6033 16.58 17.534L14.743 16.949C14.2661 17.3003 13.7516 17.5975 13.209 17.835L12.796 19.714C12.7472 19.9366 12.6239 20.1359 12.4464 20.2788C12.2689 20.4218 12.0479 20.4998 11.82 20.5ZM9.99601 6.5C8.93514 6.5 7.91772 6.92143 7.16758 7.67157C6.41743 8.42172 5.99601 9.43913 5.99601 10.5C5.99601 11.5609 6.41743 12.5783 7.16758 13.3284C7.91772 14.0786 8.93514 14.5 9.99601 14.5C11.0569 14.5 12.0743 14.0786 12.8244 13.3284C13.5746 12.5783 13.996 11.5609 13.996 10.5C13.996 9.43913 13.5746 8.42172 12.8244 7.67157C12.0743 6.92143 11.0569 6.5 9.99601 6.5Z" fill="#808080"/>
</svg>
